<svg xmlns="http://www.w3.org/2000/svg" viewBox="0 0 32 32" width="32" height="32">
  <defs>
    <linearGradient id="g" x1="0" y1="0" x2="1" y2="1">
      <stop offset="0%" stop-color="#CF6679"/>
      <stop offset="100%" stop-color="#E08C6A"/>
    </linearGradient>
  </defs>
  <rect width="32" height="32" rx="7" fill="url(#g)"/>
  <path fill="white" transform="translate(4, 4) scale(1)" d="M12 2a2 2 0 0 1 2 2c0 .74-.4 1.39-1 1.73V7h1a7 7 0 0 1 7 7H3a7 7 0 0 1 7-7h1V5.73A2 2 0 0 1 10 4a2 2 0 0 1 2-2M7.5 14a1.5 1.5 0 0 0-1.5 1.5A1.5 1.5 0 0 0 7.5 17 1.5 1.5 0 0 0 9 15.5 1.5 1.5 0 0 0 7.5 14m9 0a1.5 1.5 0 0 0-1.5 1.5 1.5 1.5 0 0 0 1.5 1.5 1.5 1.5 0 0 0 1.5-1.5 1.5 1.5 0 0 0-1.5-1.5M22 14h-1a9 9 0 0 1-9 9 9 9 0 0 1-9-9H2a1 1 0 0 0-1 1v2a1 1 0 0 0 1 1h1.06A10 10 0 0 0 12 24a10 10 0 0 0 8.94-6H22a1 1 0 0 0 1-1v-2a1 1 0 0 0-1-1z"/>
</svg>
